<svg width="20" height="24" viewBox="0 0 20 24" fill="none" xmlns="http://www.w3.org/2000/svg">
<path d="M10 0.333344C9.03402 0.333344 8.25002 1.11734 8.25002 2.08334V2.89454C5.23207 3.67245 3.00002 6.40561 3.00002 9.66668V16.6667L1.209 18.0156H1.20673C1.04118 18.121 0.9049 18.2665 0.810503 18.4386C0.716105 18.6107 0.66664 18.8038 0.666687 19C0.666687 19.3094 0.789604 19.6062 1.0084 19.825C1.22719 20.0438 1.52393 20.1667 1.83335 20.1667H10H18.1667C18.4761 20.1667 18.7729 20.0438 18.9916 19.825C19.2104 19.6062 19.3334 19.3094 19.3334 19C19.3334 18.8038 19.2839 18.6107 19.1895 18.4386C19.0951 18.2665 18.9589 18.121 18.7933 18.0156L17 16.6667V9.66668C17 6.40561 14.768 3.67245 11.75 2.89454V2.08334C11.75 1.11734 10.966 0.333344 10 0.333344ZM7.66669 21.3333C7.66669 22.6167 8.71669 23.6667 10 23.6667C11.2834 23.6667 12.3334 22.6167 12.3334 21.3333H7.66669Z" fill="#191919"/>
</svg>
